<?xml version="1.0" standalone="no"?>
<!DOCTYPE svg PUBLIC "-//W3C//DTD SVG 20010904//EN"
 "http://www.w3.org/TR/2001/REC-SVG-20010904/DTD/svg10.dtd">
<svg version="1.0" xmlns="http://www.w3.org/2000/svg"
 width="796.000000pt" height="418.000000pt" viewBox="0 0 796.000000 418.000000"
 preserveAspectRatio="xMidYMid meet">

<g transform="translate(0.000000,418.000000) scale(0.100000,-0.100000)"
fill="#000000" stroke="none">
<path d="M3795 4013 c-67 -4 -211 -30 -310 -54 -255 -65 -527 -200 -735 -366
-419 -334 -679 -809 -741 -1353 -14 -129 -7 -390 15 -515 74 -418 247 -762
530 -1054 165 -169 332 -294 531 -394 112 -57 266 -117 299 -117 46 0 76 19
93 57 13 32 15 66 9 217 -4 99 -8 182 -11 184 -2 2 -33 -1 -68 -7 -139 -24
-282 -8 -393 45 -90 42 -151 112 -217 246 -60 124 -126 203 -215 261 -48 31
-72 71 -54 89 19 19 106 22 160 4 86 -29 155 -87 232 -196 77 -108 107 -136
191 -174 95 -44 229 -44 339 0 34 14 40 21 51 67 17 72 36 114 74 168 l33 47
-61 6 c-92 11 -274 60 -350 94 -278 127 -434 356 -473 695 l-7 57 51 0 51 0 3
-57 3 -58 358 -3 357 -2 0 60 0 60 60 0 60 0 0 60 0 60 60 0 60 0 0 120 0 120
120 0 119 0 3 -117 3 -118 57 -3 57 -3 3 -57 3 -57 57 -3 57 -3 3 -57 3 -57
418 -3 417 -2 0 60 0 60 60 0 60 0 0 60 c0 33 4 60 10 60 15 0 12 -121 -5
-226 -38 -233 -128 -407 -272 -527 -67 -55 -199 -125 -293 -155 -69 -23 -254
-62 -289 -62 -27 0 -26 -6 6 -44 33 -39 67 -116 82 -184 7 -33 11 -175 11
-380 0 -306 1 -329 20 -359 40 -66 120 -53 339 52 417 202 740 525 937 940 96
202 150 391 179 626 63 515 -96 1056 -436 1474 -53 65 -208 221 -289 290 -72
61 -259 179 -375 236 -319 156 -656 218 -1050 192z m-660 -835 c88 -29 194
-80 274 -132 l70 -45 118 24 c277 56 590 50 836 -16 36 -10 43 -8 110 34 145
90 286 148 394 162 75 10 87 0 114 -97 29 -103 33 -302 6 -382 l-16 -48 40
-51 c22 -28 49 -68 60 -89 l19 -38 -1181 0 c-1053 0 -1181 2 -1175 15 9 23 82
129 99 143 12 11 12 21 -5 80 -15 53 -18 91 -15 182 4 132 37 276 65 283 29 9
125 -5 187 -25z"/>
<path d="M2700 1195 c0 -18 24 -30 40 -20 8 5 8 11 -1 21 -15 19 -39 18 -39
-1z"/>
<path d="M2782 1118 c3 -23 48 -41 48 -20 0 24 -14 42 -32 42 -14 0 -19 -6
-16 -22z"/>
<path d="M2856 1025 c-6 -18 30 -59 44 -50 14 9 12 39 -2 53 -16 16 -35 15
-42 -3z"/>
<path d="M2954 916 c-8 -22 14 -56 37 -56 27 0 35 27 14 50 -21 23 -43 26 -51
6z"/>
<path d="M3086 831 c-9 -14 4 -40 24 -46 38 -12 64 17 38 43 -14 14 -54 16
-62 3z"/>
<path d="M3413 830 c-26 -11 -30 -38 -8 -46 26 -10 65 5 65 25 0 15 -22 35
-33 30 -1 0 -12 -4 -24 -9z"/>
<path d="M3258 809 c-39 -22 -4 -59 42 -44 25 8 26 31 1 45 -23 12 -22 12 -43
-1z"/>
</g>
</svg>
