<svg width="900" height="300" viewBox="0 0 900 300" fill="none" xmlns="http://www.w3.org/2000/svg">
  <defs>
    <linearGradient id="whiteMetal" x1="180" y1="60" x2="710" y2="240" gradientUnits="userSpaceOnUse">
      <stop offset="0" stop-color="#FFFFFF"/>
      <stop offset="0.5" stop-color="#C9D4E0"/>
      <stop offset="1" stop-color="#FFFFFF"/>
    </linearGradient>
    <linearGradient id="slashGradient" x1="410" y1="220" x2="505" y2="80" gradientUnits="userSpaceOnUse">
      <stop offset="0" stop-color="#8C5CFF"/>
      <stop offset="0.55" stop-color="#2F7BFF"/>
      <stop offset="1" stop-color="#67D9FF"/>
    </linearGradient>
    <filter id="glow" x="-40%" y="-80%" width="180%" height="260%">
      <feGaussianBlur stdDeviation="6" result="blur"/>
      <feColorMatrix in="blur" type="matrix"
        values="0 0 0 0 0.35
                0 0 0 0 0.35
                0 0 0 0 1
                0 0 0 0.8 0"/>
      <feMerge>
        <feMergeNode/>
        <feMergeNode in="SourceGraphic"/>
      </feMerge>
    </filter>
  </defs>

  <g>
    <path d="M120 214V86H164L225 154L286 86H330V214H288V143L238 199H212L162 143V214H120Z" fill="url(#whiteMetal)"/>
    <path d="M414 225L489 75H527L452 225H414Z" fill="url(#slashGradient)" filter="url(#glow)"/>
    <path d="M584 214C567 214 553 200 553 183V179H595V183C595 189 600 194 606 194H688C694 194 699 189 699 183V174C699 168 694 163 688 163H588C571 163 557 149 557 132V117C557 100 571 86 588 86H719C736 86 750 100 750 117V121H708V117C708 111 703 106 697 106H610C604 106 599 111 599 117V126C599 132 604 137 610 137H710C727 137 741 151 741 168V183C741 200 727 214 710 214H584Z" fill="url(#whiteMetal)"/>
  </g>
</svg>