<svg width="900" height="300" viewBox="0 0 900 300" fill="none" xmlns="http://www.w3.org/2000/svg">
  <defs>
    <linearGradient id="braceLeft" x1="105" y1="70" x2="160" y2="230" gradientUnits="userSpaceOnUse">
      <stop offset="0" stop-color="#67D9FF"/>
      <stop offset="1" stop-color="#00A3FF"/>
    </linearGradient>
    <linearGradient id="braceRight" x1="740" y1="70" x2="795" y2="230" gradientUnits="userSpaceOnUse">
      <stop offset="0" stop-color="#C06BFF"/>
      <stop offset="1" stop-color="#7C4DFF"/>
    </linearGradient>
    <linearGradient id="letterMetal" x1="250" y1="75" x2="650" y2="225" gradientUnits="userSpaceOnUse">
      <stop offset="0" stop-color="#FFFFFF"/>
      <stop offset="0.5" stop-color="#D9E2EA"/>
      <stop offset="1" stop-color="#FFFFFF"/>
    </linearGradient>
    <filter id="cyanGlow" x="-100%" y="-80%" width="300%" height="260%">
      <feGaussianBlur stdDeviation="7" result="blur"/>
      <feColorMatrix in="blur" type="matrix"
        values="0 0 0 0 0
                0 0 0 0 0.75
                0 0 0 0 1
                0 0 0 0.8 0"/>
      <feMerge><feMergeNode/><feMergeNode in="SourceGraphic"/></feMerge>
    </filter>
    <filter id="purpleGlow" x="-100%" y="-80%" width="300%" height="260%">
      <feGaussianBlur stdDeviation="7" result="blur"/>
      <feColorMatrix in="blur" type="matrix"
        values="0 0 0 0 0.6
                0 0 0 0 0.2
                0 0 0 0 1
                0 0 0 0.8 0"/>
      <feMerge><feMergeNode/><feMergeNode in="SourceGraphic"/></feMerge>
    </filter>
  </defs>

  <g filter="url(#cyanGlow)">
    <path d="M168 74C133 74 116 91 116 126V133C116 143 110 148 100 148H82V175H100C110 175 116 180 116 190V197C116 232 133 249 168 249H184V219H171C158 219 151 212 151 199V184C151 172 145 165 134 161C145 157 151 150 151 138V123C151 110 158 103 171 103H184V74H168Z" fill="url(#braceLeft)"/>
  </g>

  <g>
    <path d="M265 214V86H309L370 154L431 86H475V214H433V143L383 199H357L307 143V214H265Z" fill="url(#letterMetal)"/>
    <path d="M535 214C518 214 504 200 504 183V179H546V183C546 189 551 194 557 194H639C645 194 650 189 650 183V174C650 168 645 163 639 163H539C522 163 508 149 508 132V117C508 100 522 86 539 86H670C687 86 701 100 701 117V121H659V117C659 111 654 106 648 106H561C555 106 550 111 550 117V126C550 132 555 137 561 137H661C678 137 692 151 692 168V183C692 200 678 214 661 214H535Z" fill="url(#letterMetal)"/>
  </g>

  <g filter="url(#purpleGlow)">
    <path d="M732 74C767 74 784 91 784 126V133C784 143 790 148 800 148H818V175H800C790 175 784 180 784 190V197C784 232 767 249 732 249H716V219H729C742 219 749 212 749 199V184C749 172 755 165 766 161C755 157 749 150 749 138V123C749 110 742 103 729 103H716V74H732Z" fill="url(#braceRight)"/>
  </g>
</svg>