<svg width="600" height="600" viewBox="0 0 600 600" fill="none" xmlns="http://www.w3.org/2000/svg">
  <defs>
    <linearGradient id="ringGradient" x1="115" y1="110" x2="490" y2="495" gradientUnits="userSpaceOnUse">
      <stop offset="0" stop-color="#FFFFFF"/>
      <stop offset="0.5" stop-color="#D8E0E8"/>
      <stop offset="0.78" stop-color="#FFFFFF"/>
      <stop offset="1" stop-color="#5D67FF"/>
    </linearGradient>
    <linearGradient id="letters" x1="160" y1="190" x2="435" y2="385" gradientUnits="userSpaceOnUse">
      <stop offset="0" stop-color="#FFFFFF"/>
      <stop offset="0.52" stop-color="#DCE5EE"/>
      <stop offset="1" stop-color="#FFFFFF"/>
    </linearGradient>
    <radialGradient id="dot" cx="0" cy="0" r="1" gradientUnits="userSpaceOnUse" gradientTransform="translate(444 360) rotate(90) scale(26)">
      <stop stop-color="#80D8FF"/>
      <stop offset="1" stop-color="#5B5CFF"/>
    </radialGradient>
    <filter id="dotGlow" x="390" y="305" width="110" height="110">
      <feGaussianBlur stdDeviation="8" result="blur"/>
      <feColorMatrix in="blur" type="matrix"
        values="0 0 0 0 0.2
                0 0 0 0 0.45
                0 0 0 0 1
                0 0 0 0.9 0"/>
      <feMerge><feMergeNode/><feMergeNode in="SourceGraphic"/></feMerge>
    </filter>
  </defs>

  <circle cx="300" cy="300" r="205" stroke="url(#ringGradient)" stroke-width="16" stroke-linecap="round" stroke-dasharray="1080 120"/>
  <circle cx="300" cy="300" r="178" stroke="#FFFFFF" stroke-opacity="0.25" stroke-width="3"/>

  <path d="M165 367V232H207L270 303L333 232H375V367H333V292L283 350H257L207 292V367H165Z" fill="url(#letters)"/>
  <path d="M385 367C367 367 353 353 353 335V331H395V335C395 342 400 347 407 347H466C473 347 478 342 478 335V325C478 318 473 313 466 313H394C376 313 362 299 362 281V264C362 246 376 232 394 232H493C511 232 525 246 525 264V269H483V264C483 257 478 252 471 252H416C409 252 404 257 404 264V275C404 282 409 287 416 287H488C506 287 520 301 520 319V335C520 353 506 367 488 367H385Z" fill="url(#letters)" transform="scale(0.72) translate(118 107)"/>

  <g filter="url(#dotGlow)">
    <circle cx="446" cy="362" r="18" fill="url(#dot)"/>
    <circle cx="446" cy="362" r="27" stroke="#FFFFFF" stroke-opacity="0.3" stroke-width="5"/>
  </g>
</svg>