<svg width="600" height="600" viewBox="0 0 600 600" fill="none" xmlns="http://www.w3.org/2000/svg">
  <defs>
    <linearGradient id="ring" x1="125" y1="110" x2="490" y2="500" gradientUnits="userSpaceOnUse">
      <stop stop-color="#FFFFFF"/>
      <stop offset="0.55" stop-color="#FFFFFF"/>
      <stop offset="1" stop-color="#6D5CFF"/>
    </linearGradient>
    <linearGradient id="letters" x1="165" y1="220" x2="430" y2="370" gradientUnits="userSpaceOnUse">
      <stop stop-color="#FFFFFF"/>
      <stop offset=".5" stop-color="#DCE4EC"/>
      <stop offset="1" stop-color="#FFFFFF"/>
    </linearGradient>
    <radialGradient id="purpleDot" cx="0" cy="0" r="1" gradientUnits="userSpaceOnUse" gradientTransform="translate(462 362) scale(30)">
      <stop stop-color="#8D79FF"/>
      <stop offset="1" stop-color="#5C4DFF"/>
    </radialGradient>
    <filter id="glow" x="-60%" y="-60%" width="220%" height="220%">
      <feGaussianBlur stdDeviation="8" result="b"/>
      <feColorMatrix in="b" type="matrix" values="0 0 0 0 .36 0 0 0 0 .32 0 0 0 0 1 0 0 0 .75 0"/>
      <feMerge><feMergeNode/><feMergeNode in="SourceGraphic"/></feMerge>
    </filter>
  </defs>

  <path d="M486 388A205 205 0 1 1 498 255" stroke="url(#ring)" stroke-width="15" stroke-linecap="round"/>
  <path d="M172 367V232H214L276 301L338 232H380V367H338V295L289 351H263L214 295V367H172Z" fill="url(#letters)"/>
  <path d="M335 367C318 367 304 353 304 336V331H346V336C346 342 351 347 357 347H440C446 347 451 342 451 336V325C451 319 446 314 440 314H340C323 314 309 300 309 283V264C309 246 323 232 340 232H470C488 232 502 246 502 264V269H460V264C460 258 455 253 449 253H362C356 253 351 258 351 264V274C351 280 356 285 362 285H462C479 285 493 299 493 316V336C493 353 479 367 462 367H335Z" fill="url(#letters)" transform="scale(.72) translate(125 105)"/>
  <circle cx="464" cy="366" r="17" fill="url(#purpleDot)" filter="url(#glow)"/>
</svg>