<svg width="900" height="360" viewBox="0 0 900 360" fill="none" xmlns="http://www.w3.org/2000/svg">
  <defs>
    <linearGradient id="leftBrace" x1="130" y1="75" x2="130" y2="285" gradientUnits="userSpaceOnUse">
      <stop stop-color="#54D8FF"/>
      <stop offset="1" stop-color="#159BFF"/>
    </linearGradient>
    <linearGradient id="rightBrace" x1="770" y1="75" x2="770" y2="285" gradientUnits="userSpaceOnUse">
      <stop stop-color="#C467FF"/>
      <stop offset="1" stop-color="#8D49FF"/>
    </linearGradient>
    <linearGradient id="metal" x1="260" y1="105" x2="650" y2="250" gradientUnits="userSpaceOnUse">
      <stop stop-color="#FFFFFF"/>
      <stop offset="0.5" stop-color="#DDE6EF"/>
      <stop offset="1" stop-color="#FFFFFF"/>
    </linearGradient>
    <filter id="cyanGlow" x="-70%" y="-70%" width="240%" height="240%">
      <feGaussianBlur stdDeviation="7" result="b"/>
      <feColorMatrix in="b" type="matrix" values="0 0 0 0 0.05 0 0 0 0 0.7 0 0 0 0 1 0 0 0 .8 0"/>
      <feMerge><feMergeNode/><feMergeNode in="SourceGraphic"/></feMerge>
    </filter>
    <filter id="purpleGlow" x="-70%" y="-70%" width="240%" height="240%">
      <feGaussianBlur stdDeviation="7" result="b"/>
      <feColorMatrix in="b" type="matrix" values="0 0 0 0 .65 0 0 0 0 .25 0 0 0 0 1 0 0 0 .8 0"/>
      <feMerge><feMergeNode/><feMergeNode in="SourceGraphic"/></feMerge>
    </filter>
  </defs>

  <g filter="url(#cyanGlow)">
    <text x="102" y="246" font-family="Consolas, Menlo, monospace" font-size="205" font-weight="400" fill="url(#leftBrace)">{</text>
  </g>

  <g>
    <path d="M255 247V111H301L365 181L429 111H475V247H432V178L378 238H352L298 178V247H255Z" fill="url(#metal)"/>
    <path d="M535 247C518 247 504 233 504 216V210H548V216C548 222 553 227 559 227H646C652 227 657 222 657 216V205C657 199 652 194 646 194H540C523 194 509 180 509 163V142C509 125 523 111 540 111H679C696 111 710 125 710 142V148H666V142C666 136 661 131 655 131H562C556 131 551 136 551 142V153C551 159 556 164 562 164H668C685 164 699 178 699 195V216C699 233 685 247 668 247H535Z" fill="url(#metal)"/>
  </g>

  <g filter="url(#purpleGlow)">
    <text x="710" y="246" font-family="Consolas, Menlo, monospace" font-size="205" font-weight="400" fill="url(#rightBrace)">}</text>
  </g>
</svg>