<svg width="140" height="140" viewBox="0 0 140 140" fill="none" xmlns="http://www.w3.org/2000/svg">
<g filter="url(#filter0_in_0_1)">
<path d="M0 27C0 12.0883 12.0883 0 27 0H113C127.912 0 140 12.0883 140 27V113C140 127.912 127.912 140 113 140H27C12.0883 140 0 127.912 0 113V27Z" fill="#68688A"/>
<path d="M27 0.5H113C127.636 0.5 139.5 12.3645 139.5 27V113C139.5 127.636 127.636 139.5 113 139.5H27C12.3645 139.5 0.5 127.636 0.5 113V27C0.5 12.3645 12.3645 0.5 27 0.5Z" stroke="black"/>
</g>
<g filter="url(#filter1_g_0_1)">
<rect x="14" y="14" width="113" height="113" fill="#222B59" fill-opacity="0.63"/>
</g>
<g filter="url(#filter2_dd_0_1)">
<path d="M30.6119 102.441C29.1988 103.76 29.1224 105.975 30.4413 107.388C31.7602 108.801 33.975 108.878 35.3881 107.559L33 105L30.6119 102.441ZM111.498 35.1206C111.565 33.1888 110.052 31.5687 108.121 31.5021L76.6393 30.4165C74.7075 30.3499 73.0874 31.862 73.0208 33.7938C72.9542 35.7257 74.4662 37.3457 76.3981 37.4124L104.381 38.3773L103.417 66.3607C103.35 68.2925 104.862 69.9126 106.794 69.9792C108.726 70.0458 110.346 68.5338 110.412 66.6019L111.498 35.1206ZM33 105L35.3881 107.559L110.388 37.5587L108 35L105.612 32.4413L30.6119 102.441L33 105Z" fill="white"/>
</g>
<defs>
<filter id="filter0_in_0_1" x="0" y="0" width="140" height="144" filterUnits="userSpaceOnUse" color-interpolation-filters="sRGB">
<feFlood flood-opacity="0" result="BackgroundImageFix"/>
<feBlend mode="normal" in="SourceGraphic" in2="BackgroundImageFix" result="shape"/>
<feColorMatrix in="SourceAlpha" type="matrix" values="0 0 0 0 0 0 0 0 0 0 0 0 0 0 0 0 0 0 127 0" result="hardAlpha"/>
<feOffset dy="4"/>
<feGaussianBlur stdDeviation="2"/>
<feComposite in2="hardAlpha" operator="arithmetic" k2="-1" k3="1"/>
<feColorMatrix type="matrix" values="0 0 0 0 0 0 0 0 0 0 0 0 0 0 0 0 0 0 0.25 0"/>
<feBlend mode="normal" in2="shape" result="effect1_innerShadow_0_1"/>
<feTurbulence type="fractalNoise" baseFrequency="2 2" stitchTiles="stitch" numOctaves="3" result="noise" seed="6560" />
<feColorMatrix in="noise" type="luminanceToAlpha" result="alphaNoise" />
<feComponentTransfer in="alphaNoise" result="coloredNoise1">
<feFuncA type="discrete" tableValues="1 1 1 1 1 1 1 1 1 1 1 1 1 1 1 1 1 1 1 1 1 1 1 1 1 1 1 1 1 1 1 1 1 1 1 1 1 1 1 1 1 1 1 1 1 1 1 1 1 1 1 0 0 0 0 0 0 0 0 0 0 0 0 0 0 0 0 0 0 0 0 0 0 0 0 0 0 0 0 0 0 0 0 0 0 0 0 0 0 0 0 0 0 0 0 0 0 0 0 0 "/>
</feComponentTransfer>
<feComposite operator="in" in2="effect1_innerShadow_0_1" in="coloredNoise1" result="noise1Clipped" />
<feFlood flood-color="rgba(0, 0, 0, 0.25)" result="color1Flood" />
<feComposite operator="in" in2="noise1Clipped" in="color1Flood" result="color1" />
<feMerge result="effect2_noise_0_1">
<feMergeNode in="effect1_innerShadow_0_1" />
<feMergeNode in="color1" />
</feMerge>
</filter>
<filter id="filter1_g_0_1" x="10" y="10" width="121" height="121" filterUnits="userSpaceOnUse" color-interpolation-filters="sRGB">
<feFlood flood-opacity="0" result="BackgroundImageFix"/>
<feBlend mode="normal" in="SourceGraphic" in2="BackgroundImageFix" result="shape"/>
<feTurbulence type="fractalNoise" baseFrequency="0.25 0.25" numOctaves="3" seed="2970" />
<feDisplacementMap in="shape" scale="8" xChannelSelector="R" yChannelSelector="G" result="displacedImage" width="100%" height="100%" />
<feMerge result="effect1_texture_0_1">
<feMergeNode in="displacedImage"/>
</feMerge>
</filter>
<filter id="filter2_dd_0_1" x="25.5" y="30.4144" width="90" height="86.0856" filterUnits="userSpaceOnUse" color-interpolation-filters="sRGB">
<feFlood flood-opacity="0" result="BackgroundImageFix"/>
<feColorMatrix in="SourceAlpha" type="matrix" values="0 0 0 0 0 0 0 0 0 0 0 0 0 0 0 0 0 0 127 0" result="hardAlpha"/>
<feOffset dy="4"/>
<feGaussianBlur stdDeviation="2"/>
<feComposite in2="hardAlpha" operator="out"/>
<feColorMatrix type="matrix" values="0 0 0 0 0 0 0 0 0 0 0 0 0 0 0 0 0 0 0.25 0"/>
<feBlend mode="normal" in2="BackgroundImageFix" result="effect1_dropShadow_0_1"/>
<feColorMatrix in="SourceAlpha" type="matrix" values="0 0 0 0 0 0 0 0 0 0 0 0 0 0 0 0 0 0 127 0" result="hardAlpha"/>
<feOffset dy="4"/>
<feGaussianBlur stdDeviation="2"/>
<feComposite in2="hardAlpha" operator="out"/>
<feColorMatrix type="matrix" values="0 0 0 0 0 0 0 0 0 0 0 0 0 0 0 0 0 0 0.25 0"/>
<feBlend mode="normal" in2="effect1_dropShadow_0_1" result="effect2_dropShadow_0_1"/>
<feBlend mode="normal" in="SourceGraphic" in2="effect2_dropShadow_0_1" result="shape"/>
</filter>
</defs>
</svg>
